<svg width="366" height="335" viewBox="0 0 366 335" fill="none" xmlns="http://www.w3.org/2000/svg">
<g clip-path="url(#clip0_135_341)">
<path d="M354.605 270.656C354.605 291.416 342.1 298.666 326.676 298.666C326.317 298.666 325.959 298.662 325.604 298.652C324.89 298.637 324.181 298.606 323.482 298.556C309.561 297.585 298.745 289.962 298.745 270.656C298.745 250.677 324.608 225.466 326.559 223.595L326.563 223.593C326.637 223.52 326.676 223.483 326.676 223.483C326.676 223.483 354.605 249.894 354.605 270.656Z" fill="#3F3D56"/>
<path d="M325.657 295.489L335.873 281.402L325.631 297.035L325.604 298.652C324.89 298.637 324.181 298.606 323.482 298.556L324.583 277.787L324.575 277.626L324.595 277.595L324.698 275.633L314.431 259.959L324.729 274.162L324.754 274.578L325.587 258.885L316.797 242.69L325.693 256.128L326.559 223.595L326.563 223.483V223.593L326.419 249.248L335.168 239.077L326.383 251.457L326.151 265.508L334.322 252.024L326.117 267.577L325.988 275.388L337.849 256.618L325.944 278.114L325.657 295.489Z" fill="#F2F2F2"/>
<path d="M64.4359 292.973C64.4359 305.413 56.9431 309.757 47.7009 309.757C47.4858 309.757 47.2717 309.754 47.0589 309.748C46.6309 309.739 46.2063 309.721 45.7876 309.691C37.4457 309.109 30.9648 304.541 30.9648 292.973C30.9648 281.002 46.4622 265.896 47.6311 264.774L47.6335 264.773C47.6777 264.729 47.7009 264.708 47.7009 264.708C47.7009 264.708 64.4359 280.532 64.4359 292.973Z" fill="#3F3D56"/>
<g opacity="0.7">
<g opacity="0.1">
<path d="M280.076 259.301V267.812V270.649V308.477V311.314V319.352H268.578H264.745V311.314V308.477V270.649V267.812V259.301H268.578H280.076Z" fill="url(#paint0_linear_135_341)"/>
</g>
<g opacity="0.1">
<path d="M263.787 259.301V267.812V270.649V308.477V311.314V319.352H252.289H248.456V311.314V308.477V270.649V267.812V259.301H252.289H263.787Z" fill="url(#paint1_linear_135_341)"/>
</g>
</g>
<path d="M59.8408 303.114H32.8544C29.183 303.114 26.2068 306.051 26.2068 309.675V313.471C26.2068 317.094 29.183 320.032 32.8544 320.032H59.8408C63.5122 320.032 66.4885 317.094 66.4885 313.471V309.675C66.4885 306.051 63.5122 303.114 59.8408 303.114Z" fill="#E7E7F3"/>
<g opacity="0.7">
<g opacity="0.1">
<path d="M101.747 259.759V268.271V271.108V308.936V311.773V319.811H113.246H117.079V311.773V308.936V271.108V268.271V259.759H113.246H101.747Z" fill="url(#paint2_linear_135_341)"/>
</g>
<g opacity="0.1">
<path d="M118.037 259.759V268.271V271.108V308.936V311.773V319.811H129.535H133.367V311.773V308.936V271.108V268.271V259.759H129.535H118.037Z" fill="url(#paint3_linear_135_341)"/>
</g>
<g opacity="0.1">
<path d="M163.944 315.902L151.228 268.843L150.487 266.102L148.265 257.878L133.452 261.778L135.674 270.002L136.264 272.185L146.292 309.293L147.032 312.034L149.131 319.801L163.944 315.902Z" fill="url(#paint4_linear_135_341)"/>
</g>
</g>
<path d="M117.874 261.227H103.317V318.249H117.874V261.227Z" fill="#535461"/>
<path d="M117.874 269.309H103.317V272.003H117.874V269.309Z" fill="#E7E7F3"/>
<path d="M117.874 307.922H103.317V310.616H117.874V307.922Z" fill="#E7E7F3"/>
<path opacity="0.1" d="M117.874 261.227H114.235V318.249H117.874V261.227Z" fill="black"/>
<path d="M133.341 261.227H118.784V318.249H133.341V261.227Z" fill="#535461"/>
<path d="M133.341 269.309H118.784V272.003H133.341V269.309Z" fill="#E7E7F3"/>
<path d="M133.341 307.922H118.784V310.616H133.341V307.922Z" fill="#E7E7F3"/>
<path opacity="0.1" d="M133.341 261.227H129.702V318.249H133.341V261.227Z" fill="black"/>
<path d="M147.487 259.441L133.421 263.144L148.31 318.239L162.375 314.537L147.487 259.441Z" fill="#535461"/>
<path d="M149.597 267.25L135.531 270.952L136.235 273.555L150.3 269.853L149.597 267.25Z" fill="#E7E7F3"/>
<path d="M159.679 304.559L145.613 308.261L146.317 310.864L160.382 307.162L159.679 304.559Z" fill="#E7E7F3"/>
<path opacity="0.1" d="M147.487 259.441L143.97 260.367L158.859 315.462L162.375 314.537L147.487 259.441Z" fill="black"/>
<path d="M263.567 318.249H278.125V261.227H263.567V318.249Z" fill="#535461"/>
<path d="M263.567 272.003H278.125V269.309H263.567V272.003Z" fill="#E7E7F3"/>
<path d="M263.567 310.616H278.125V307.922H263.567V310.616Z" fill="#E7E7F3"/>
<path opacity="0.1" d="M263.567 318.249H267.207V261.227H263.567V318.249Z" fill="black"/>
<path d="M248.1 318.249H262.657V261.227H248.1V318.249Z" fill="#535461"/>
<path d="M248.1 272.003H262.657V269.309H248.1V272.003Z" fill="#E7E7F3"/>
<path d="M248.1 310.616H262.657V307.922H248.1V310.616Z" fill="#E7E7F3"/>
<path opacity="0.1" d="M248.1 318.249H251.74V261.227H248.1V318.249Z" fill="black"/>
<path d="M298.613 291.02H351.392C351.392 291.02 361.804 304.131 345.647 323.621H303.999C303.999 323.621 288.92 310.155 298.613 291.02Z" fill="#E7E7F3"/>
<g opacity="0.1">
<path d="M351.392 291.02H298.614C298.493 291.257 298.38 291.493 298.267 291.729H349.596C349.596 291.729 359.753 304.523 344.427 323.621H345.647C361.804 304.131 351.392 291.02 351.392 291.02Z" fill="black"/>
</g>
<path d="M366 317.745H0V329.991H366V317.745Z" fill="#E0E0E0"/>
<path d="M350.492 329.991H15.5085V335H350.492V329.991Z" fill="#E0E0E0"/>
<path opacity="0.1" d="M350.492 329.991H15.5085V331.66H350.492V329.991Z" fill="black"/>
</g>
<defs>
<linearGradient id="paint0_linear_135_341" x1="272.411" y1="319.352" x2="272.411" y2="259.301" gradientUnits="userSpaceOnUse">
<stop stop-color="#808080" stop-opacity="0.25"/>
<stop offset="0.53514" stop-color="#808080" stop-opacity="0.12"/>
<stop offset="1" stop-color="#808080" stop-opacity="0.1"/>
</linearGradient>
<linearGradient id="paint1_linear_135_341" x1="256.122" y1="319.352" x2="256.122" y2="259.301" gradientUnits="userSpaceOnUse">
<stop stop-color="#808080" stop-opacity="0.25"/>
<stop offset="0.53514" stop-color="#808080" stop-opacity="0.12"/>
<stop offset="1" stop-color="#808080" stop-opacity="0.1"/>
</linearGradient>
<linearGradient id="paint2_linear_135_341" x1="109.413" y1="319.811" x2="109.413" y2="259.76" gradientUnits="userSpaceOnUse">
<stop stop-color="#808080" stop-opacity="0.25"/>
<stop offset="0.53514" stop-color="#808080" stop-opacity="0.12"/>
<stop offset="1" stop-color="#808080" stop-opacity="0.1"/>
</linearGradient>
<linearGradient id="paint3_linear_135_341" x1="125.702" y1="319.811" x2="125.702" y2="259.76" gradientUnits="userSpaceOnUse">
<stop stop-color="#808080" stop-opacity="0.25"/>
<stop offset="0.53514" stop-color="#808080" stop-opacity="0.12"/>
<stop offset="1" stop-color="#808080" stop-opacity="0.1"/>
</linearGradient>
<linearGradient id="paint4_linear_135_341" x1="148.698" y1="319.801" x2="148.698" y2="257.878" gradientUnits="userSpaceOnUse">
<stop stop-color="#808080" stop-opacity="0.25"/>
<stop offset="0.53514" stop-color="#808080" stop-opacity="0.12"/>
<stop offset="1" stop-color="#808080" stop-opacity="0.1"/>
</linearGradient>
<clipPath id="clip0_135_341">
<rect width="366" height="335" fill="white"/>
</clipPath>
</defs>
</svg>
